<svg width="150" height="101" viewBox="0 0 150 101" fill="none" xmlns="http://www.w3.org/2000/svg">
<path d="M99.5755 30.502C103.038 30.502 106.206 31.0912 109.077 32.269C111.949 33.3627 114.736 34.6663 117.439 36.1806C120.226 37.6108 123.014 38.9151 125.801 40.0929C128.673 41.1866 131.672 41.7336 134.797 41.7336C137.668 41.7336 140.202 41.1028 142.398 39.841C144.678 38.4949 146.452 36.1809 147.719 32.8999L150 33.4044C149.578 37.3586 148.437 40.8079 146.579 43.7525C144.806 46.6971 142.483 48.9688 139.611 50.5673C136.824 52.1658 133.783 52.9652 130.489 52.9652C127.11 52.9652 123.943 52.4182 120.987 51.3245C118.115 50.1467 115.327 48.8424 112.625 47.4122C109.922 45.898 107.177 44.5943 104.39 43.5006C101.603 42.3228 98.5618 41.7336 95.2677 41.7336C92.4804 41.7336 89.9462 42.4064 87.6657 43.7525C85.4697 45.0145 83.6958 47.2862 82.3444 50.5673L80.1909 50.0628C80.5288 46.1086 81.627 42.6593 83.4852 39.7147C85.3434 36.7701 87.6659 34.4984 90.4532 32.8999C93.325 31.3014 96.3659 30.502 99.5755 30.502Z" fill="#D67803"/>
<path d="M99.5755 2.61653C103.038 2.61655 106.206 3.20575 109.077 4.38357C111.949 5.47725 114.736 6.78082 117.439 8.29513C120.226 9.72532 123.014 11.0296 125.801 12.2074C128.673 13.3012 131.672 13.8482 134.797 13.8482C137.668 13.8481 140.202 13.2174 142.398 11.9555C144.678 10.6095 146.452 8.29548 147.719 5.01445L150 5.51899C149.578 9.47313 148.437 12.9225 146.579 15.8671C144.806 18.8116 142.483 21.0834 139.611 22.6819C136.824 24.2804 133.783 25.0798 130.489 25.0798C127.11 25.0798 123.943 24.5327 120.987 23.4391C118.115 22.2612 115.327 20.957 112.625 19.5268C109.922 18.0125 107.177 16.7088 104.39 15.6152C101.603 14.4374 98.5618 13.8482 95.2677 13.8482C92.4804 13.8482 89.9462 14.521 87.6657 15.8671C85.4697 17.1291 83.6958 19.4008 82.3444 22.6819L80.1909 22.1773C80.5288 18.2232 81.627 14.7738 83.4852 11.8292C85.3434 8.88463 87.6659 6.61295 90.4532 5.01445C93.325 3.41593 96.3659 2.61653 99.5755 2.61653Z" fill="#D67803"/>
<path d="M70.8771 5.04095C75.1578 -0.575971 83.188 -1.66363 88.8126 2.61126C94.4371 6.88618 95.5264 14.9046 91.2456 20.5215C89.0469 23.4065 85.8594 25.0961 82.5165 25.4785V101H78.6382V100.995L78.6367 100.996L19.7542 23.5163C18.3073 24.4513 16.6994 25.0728 15.0358 25.3673V75.5745C21.1838 76.5078 25.8949 81.8092 25.895 88.2093C25.895 95.2679 20.1649 100.99 13.0967 100.99C6.02837 100.99 0.298365 95.268 0.298365 88.2093C0.298481 81.809 5.00941 76.5076 11.1576 75.5745V25.4611C9.00683 25.1854 6.89717 24.3598 5.04775 22.9542C-0.576671 18.6793 -1.66591 10.6608 2.61473 5.04398C6.8954 -0.572831 14.9249 -1.66106 20.5495 2.61353C26.1741 6.88842 27.264 14.9076 22.9833 20.5245C22.8776 20.6632 22.7685 20.7984 22.6583 20.9315L78.6382 94.5922V25.3325C76.7607 24.9724 74.9353 24.1865 73.3108 22.952C67.6863 18.6771 66.5965 10.6579 70.8771 5.04095Z" fill="#1E293B"/>
</svg>
